# xmcd
#
# Track frame offsets:
# 150
# 12345
# 30825
# 50863
# 68274
# 89759
# 104997
# 131203
# 148468
# 166026
#
# Disc length: 2413 seconds
#
# Revision: 1
# Processed by: cddbd v1.5.2PL0 Copyright (c) Steve Scherf et al.
# Submitted via: dBpowerAMP V4.0
#
DISCID=90096b0a
DTITLE=Eliza Gilkyson - Paradise Hotel
DYEAR=2005
DGENRE=Country
TTITLE0=Borderline
TTITLE1=Paradise Hotel
TTITLE2=Man of God
TTITLE3=Jedidiah 1777
TTITLE4=Bellarosa
TTITLE5=Think About You
TTITLE6=Is It Like Today
TTITLE7=Calm Before the Storm
TTITLE8=Requiem
TTITLE9=When You Walk On
EXTD=
EXTT0=
EXTT1=
EXTT2=
EXTT3=
EXTT4=
EXTT5=
EXTT6=
EXTT7=
EXTT8=
EXTT9=
PLAYORDER=
